<?xml version="1.0" encoding="utf-8"?>
<!-- Generator: Adobe Illustrator 27.0.0, SVG Export Plug-In . SVG Version: 6.00 Build 0)  -->
<svg version="1.1" id="Layer_1" xmlns="http://www.w3.org/2000/svg" xmlns:xlink="http://www.w3.org/1999/xlink" x="0px" y="0px"
	 viewBox="0 0 100 53.96" enable-background="new 0 0 100 53.96" xml:space="preserve">
<g>
	<g>
		<path fill="#D31D54" d="M63.37,25.65c-6.21-7.97-12.3-15.79-18.4-23.61c0.03-0.06,0.06-0.12,0.09-0.18
			c7.98,0.96,15.95,1.92,24.05,2.89C67.2,11.71,65.31,18.59,63.37,25.65z"/>
		<path fill="#E1136E" d="M64.33,25.83c1.93-7,3.83-13.92,5.79-21.03c5.93,8.28,11.74,16.39,17.55,24.5
			c-0.03,0.06-0.06,0.12-0.09,0.19C79.87,28.27,72.16,27.06,64.33,25.83z"/>
		<path fill="#D31D54" d="M64.38,26.85c7.52,1.2,14.89,2.38,22.25,3.56c0.01,0.07,0.03,0.15,0.04,0.22
			c-6.37,3.19-12.74,6.39-19.23,9.64C66.43,35.79,65.43,31.42,64.38,26.85z"/>
		<path fill="#9F1C3B" d="M56.06,52.29c2.39-8.43,4.78-16.87,7.23-25.49c0.13,0.3,0.22,0.43,0.25,0.58
			c1.14,5.15,2.28,10.3,3.43,15.45c0.12,0.51,0.01,0.82-0.41,1.15c-3.3,2.66-6.58,5.36-9.87,8.04c-0.15,0.13-0.32,0.24-0.48,0.36
			C56.17,52.34,56.11,52.31,56.06,52.29z"/>
		<path fill="#D31D54" d="M81.71,19.53c3.88-0.7,7.61-1.37,11.54-2.08c-1.48,4.04-2.9,7.93-4.4,12
			C86.44,26.1,84.13,22.89,81.71,19.53z"/>
		<path fill="#E1136E" d="M70.51,39.76c5.75-2.93,11.49-5.86,17.24-8.79c0.05,0.04,0.09,0.08,0.14,0.12
			c-0.22,0.66-0.42,1.32-0.66,1.97c-0.05,0.14-0.25,0.26-0.41,0.32c-5.36,2.16-10.72,4.32-16.09,6.48
			c-0.04,0.02-0.09,0.02-0.13,0.02C70.57,39.84,70.54,39.8,70.51,39.76z"/>
		<path fill="#E1136E" d="M98.72,22.47c-2.09,0-4.19,0-6.4,0c0.61-1.65,1.19-3.23,1.71-4.67c1.59,1.49,3.17,2.98,4.76,4.47
			C98.77,22.33,98.75,22.4,98.72,22.47z"/>
		<path fill="#9F1C3B" d="M54.05,15.45c-3.27-3.09-6.54-6.19-9.8-9.28c0.02-0.06,0.05-0.12,0.07-0.18c0.83,0,1.65-0.01,2.48,0.01
			c0.13,0,0.28,0.15,0.37,0.27c2.3,2.95,4.6,5.9,6.89,8.85c0.05,0.06,0.07,0.15,0.11,0.23C54.13,15.39,54.09,15.42,54.05,15.45z"/>
	</g>
	<g>
		<path fill="#EC008C" d="M0.95,34.17c0.04-0.72,0.09-1.79,0.09-2.73V18.65h1.9v6.65h0.04c0.68-1.18,1.9-1.95,3.61-1.95
			c2.62,0,4.48,2.19,4.46,5.4c0,3.78-2.38,5.66-4.74,5.66c-1.53,0-2.75-0.59-3.54-1.99H2.7l-0.09,1.75
			C2.61,34.17,0.95,34.17,0.95,34.17z M2.94,29.93c0,0.24,0.04,0.48,0.09,0.7c0.37,1.33,1.49,2.25,2.89,2.25
			c2.01,0,3.21-1.64,3.21-4.07c0-2.12-1.09-3.94-3.15-3.94c-1.31,0-2.54,0.9-2.93,2.36c-0.04,0.22-0.11,0.48-0.11,0.79V29.93z"/>
		<path d="M13.55,19.43h1.9v7.11h0.07c0.39-0.57,0.79-1.09,1.16-1.57l4.5-5.53h2.36l-5.33,6.25l5.75,8.48H21.7l-4.85-7.24l-1.4,1.62
			v5.62h-1.9C13.55,34.17,13.55,19.43,13.55,19.43z"/>
		<path d="M31.54,34.17l-0.15-1.33h-0.07c-0.59,0.83-1.73,1.57-3.24,1.57c-2.14,0-3.24-1.51-3.24-3.04c0-2.56,2.27-3.96,6.36-3.94
			v-0.22c0-0.87-0.24-2.45-2.4-2.45c-0.98,0-2.01,0.31-2.75,0.79l-0.44-1.27c0.87-0.57,2.14-0.94,3.48-0.94
			c3.24,0,4.02,2.21,4.02,4.33v3.96c0,0.92,0.04,1.81,0.17,2.54C33.28,34.17,31.54,34.17,31.54,34.17z M31.25,28.77
			c-2.1-0.04-4.48,0.33-4.48,2.38c0,1.25,0.83,1.84,1.81,1.84c1.38,0,2.25-0.87,2.56-1.77c0.07-0.2,0.11-0.42,0.11-0.61V28.77z"/>
		<path d="M35.95,32.2c0.57,0.37,1.57,0.77,2.54,0.77c1.4,0,2.06-0.7,2.06-1.57c0-0.92-0.55-1.42-1.97-1.95
			c-1.9-0.68-2.8-1.73-2.8-3c0-1.71,1.38-3.1,3.65-3.1c1.07,0,2.01,0.31,2.6,0.66l-0.48,1.4c-0.42-0.26-1.18-0.61-2.16-0.61
			c-1.14,0-1.77,0.66-1.77,1.44c0,0.87,0.63,1.27,2.01,1.79c1.84,0.7,2.78,1.62,2.78,3.19c0,1.86-1.44,3.17-3.96,3.17
			c-1.16,0-2.23-0.28-2.97-0.72L35.95,32.2z"/>
		<path d="M44.87,18.65h1.92v6.6h0.04c0.31-0.55,0.79-1.03,1.38-1.36c0.57-0.33,1.25-0.55,1.97-0.55c1.42,0,3.69,0.87,3.69,4.53v6.3
			h-1.92v-6.08c0-1.71-0.63-3.15-2.45-3.15c-1.25,0-2.23,0.87-2.58,1.92c-0.11,0.26-0.13,0.55-0.13,0.92v6.38h-1.92V18.65z"/>
	</g>
</g>
</svg>
