<?xml version="1.0" encoding="utf-8"?>
<!-- Generator: Adobe Illustrator 27.0.0, SVG Export Plug-In . SVG Version: 6.00 Build 0)  -->
<svg version="1.1" id="Layer_1" xmlns="http://www.w3.org/2000/svg" xmlns:xlink="http://www.w3.org/1999/xlink" x="0px" y="0px"
	 viewBox="0 0 100 53.96" enable-background="new 0 0 100 53.96" xml:space="preserve">
<g>
	<g>
		<g>
			<path fill="#ED1C24" d="M47.31,24.86c0,0-1.46,0.33-1.42-0.42c0.02-0.25,0.17-0.35,0.31-0.32c0.01-0.14-0.29-0.53,0.35-0.69
				c0.22-0.31,0.41-0.55,0.47-0.74c0.06-0.19,0.24-0.45,0.82-0.33c0.58,0.12,1.2,0.68,1.29,0.84c0.34,0.01,0.69,0.06,0.56,0.13
				c-0.13,0.07-0.2,0.2-0.18,0.22c0.03,0.02,0.21,0.12-0.38,0.14c0.02,0.12,0.13,0.16,0.24,0.22c0.1,0.06-0.03,0.14,0,0.16
				c0.03,0.03,0.08,0.31-0.22,0.2c-0.3-0.12-0.32-0.22-0.4-0.2c-0.08,0.01-0.3,0.05-0.26,0.13c0.03,0.08,0.33,0.27-0.05,0.34
				c-0.07,0.07,0.12,0.18-0.03,0.23c-0.14,0.05-0.77,0.54-1.07,0.67c-0.29,0-0.39-0.08-0.36-0.2c0.03-0.12,0.16-0.21,0.35-0.23
				C47.33,24.92,47.35,24.85,47.31,24.86z"/>
		</g>
		<g>
			<path fill="#ED1C24" d="M47.18,26.42c-0.14,0.01-0.56-0.28-0.34-0.43c0.22-0.16,1.2-0.79,1.41-0.85c0.22-0.06,0.5,0.22,0.24,0.44
				C48.22,25.79,47.18,26.42,47.18,26.42z"/>
		</g>
		<g>
			<path fill="#ED1C24" d="M48.69,25.71c-0.03-0.15,0.15-0.78,0.16-0.9c0.01-0.12,0.5-0.18,0.38,0.35
				C49.12,25.69,48.72,25.87,48.69,25.71z"/>
		</g>
		<g>
			<path fill="#ED1C24" d="M49.37,24.58c0,0,2.72-0.12,2.94,0c0.22,0.12,1.16,1.57,0.93,2.85c-0.22,1.28-0.62,1.6-2.38,1.81
				c-0.03-0.41-0.09-1.48-0.27-1.77c-0.17-0.29-0.76-0.96-1.03-0.95c0,0.3-0.05,1.19-0.05,1.19s-0.87,0.06-0.99-0.12
				c-0.02-0.34,0-1.33,0-1.33s0.81-0.71,0.85-0.87c0.13,0.07,0.15,0.49,1.13,0.39C50.48,25.68,49.34,25.79,49.37,24.58z"/>
		</g>
		<g>
			<path fill="#ED1C24" d="M48.33,25.77c0,0-0.86,0.73-1.03,0.87c-0.09,0.24-0.19,0.97,0.93,0.98
				C48.31,27.16,48.33,25.77,48.33,25.77z"/>
		</g>
		<g>
			<path fill="#ED1C24" d="M46.27,26.88c-0.26-0.01-0.49-0.07-0.46-0.29c0.03-0.22,0.4-0.44,0.64-0.39c0.24,0.05,0.64,0.16,0.64,1.1
				c0.17,0.2,0.72,0.57,1.38,0.61c0.66,0.04,1.06-0.05,1.06,0.15c0,0.2,0,1.27,0,1.27s-0.79-0.03-2.75-1.4
				c-0.16-0.22-0.27-0.35-0.25-0.68C46.5,27.04,46.36,26.88,46.27,26.88z"/>
		</g>
		<g>
			<path fill="#ED1C24" d="M45.67,27.03c-0.33-0.01-1.28,0.79-0.57,1.12c0.2-0.17,0.37-0.39,0.37-0.39s-0.17,0.46,0.2,0.57
				c0.37,0.12,0.23-0.23,0.43-0.22c0.11,0.19,0.14,0.3,0.33,0.3c0.19-0.03,0.24-0.56,0-0.88C46.19,27.23,46.03,27.04,45.67,27.03z"
				/>
		</g>
		<g>
			<path fill="#ED1C24" d="M49.72,27.13v2.5c0,0,0.84-0.26,0.92-0.47C50.6,28.73,50.47,27.11,49.72,27.13z"/>
		</g>
		<g>
			<path fill="#ED1C24" d="M47.72,28.78c0,0,0.97,0.66,1.59,0.92c-0.09,0.11-0.5,0.65-0.65,0.61
				C48.52,30.26,47.77,29.24,47.72,28.78z"/>
		</g>
		<g>
			<polygon fill="#ED1C24" points="44.26,30.22 41.82,30.22 41.73,29.73 44.26,29.73 			"/>
		</g>
		<g>
			<path fill="#ED1C24" d="M50.85,29.43c0.1-0.1,0.74,0.42,0.56,0.52c-0.18,0.1-1.92,0.83-2.09,0.77c-0.17-0.06-0.11-0.5,0.06-0.59
				C49.54,30.04,50.54,29.74,50.85,29.43z"/>
		</g>
		<g>
			<path fill="#ED1C24" d="M48.91,30.61c-0.21-0.11-1.33,0.98-0.84,1.06c0.49,0.08,1.67,0.32,1.99,0.45
				c0.28-0.12,0.54-0.36,0.49-0.49c0.19,0.01,0.52,0.31,0.77,0.19c0.25-0.12,1.64-1.11,1.72-1.27c-0.28-0.24-0.89-0.59-1.14-0.58
				C51.67,29.99,49.82,31.07,48.91,30.61z"/>
		</g>
		<g>
			<path fill="#ED1C24" d="M48.33,31.99c0.12,0.01,1.54,0.54,1.89,0.47c0.36-0.07,0.42-0.41,0.63-0.39c0.2,0.02,0.3,0.2,0.63-0.01
				c0.34-0.21,0.94-0.74,1.04-0.87c0.02,0.22,0,0.83-1.31,1.41c-1.31,0.59-4.33,1.45-4.41,1.87c0.12,0.05,0.5-0.08,0.75-0.21
				c0.16,0.13,0.46,0.53,0.38,1.18c-0.08,0.65-0.58,1.78-0.58,2.1c0,0.32-0.03,1.71-0.01,1.86c0.02,0.14,0.26,0.94-0.12,0.89
				c-0.38-0.06-0.62-0.07-0.77-0.04c-0.15,0.03-0.46,0.28-0.73,0.24c-0.27-0.04-0.73-0.17-0.71-0.31c0.02-0.13,0.32-0.13,0.58-0.23
				c0.26-0.1,0.43-0.38,0.93-0.57c-0.02-0.34-0.17-2.76-0.17-3.28c0-0.52-0.17-1.57,0.05-2.02C46.64,33.63,47.79,31.96,48.33,31.99z
				"/>
		</g>
		<g>
			<path fill="#ED1C24" d="M50.17,33.44c-0.03,0.16,0.87,2.36,1.26,2.39c0.39,0.04,4.01-0.74,4.7-0.53c0.21,0.28,0.64,0.81,0.62,1.1
				c0,0,0.09,0.72,0.03,0.76c0.11,0.03,0.42-0.08,0.5-0.28c0.07-0.2,0.02-1.17,0.05-1.34c0.03-0.17,0.46-1.04-0.13-1.02
				c-0.58,0.01-2.27,0.01-2.81-0.13c-0.54-0.15-1.77-0.37-2.08-0.22c-0.31,0.16-0.66,0.66-0.66,0.8c-0.13,0.03-0.17-0.1-0.04-0.47
				c0.13-0.37,0.57-1.5,0.52-2.1C51.71,32.56,50.17,33.44,50.17,33.44z"/>
		</g>
		<g>
			<path fill="#ED1C24" d="M48.11,29.97c0.04,0.1,0.1,0.28,0.2,0.37l-2.9-0.18c0,0-0.34-0.21-0.2-0.26L48.11,29.97z"/>
		</g>
		<g>
			<path fill="#ED1C24" d="M44.92,29.73h2.9c0,0-0.24-0.33-0.3-0.54c-0.51,0-2.68,0.04-2.68,0.04s-0.31-0.02-0.31,0.55
				C44.54,29.93,44.77,30.16,44.92,29.73z"/>
		</g>
		<g>
			<path fill="#ED1C24" d="M40.97,30.22h0.6c0,0,0.19-0.08,0-0.31c-0.19-0.23-0.57-0.36-0.3-0.76c-0.28-0.05-0.69-0.14-0.63,0.76
				c-0.12,0-0.29,0-0.29,0s-0.11-0.51-0.77-0.51c-0.66,0-2.32,0.68-2.32,0.68s1.86,0.51,2.33,0.51c0.47,0,0.78-0.46,0.78-0.46h0.23
				c0,0,0.11,0.35,0.22,0.5c0,0.24,0.01,0.56,0.01,0.56s-0.28,0.1-0.24,0.44c0.04,0.34,0.22,0.33,0.28,0.33
				c0.06,0,0.13-0.11,0.37-0.11c0.12-0.12,0.04-0.53-0.18-0.62c0-0.19-0.02-0.4-0.02-0.4s0.24-0.15,0.21-0.29
				C41.22,30.39,40.97,30.4,40.97,30.22z"/>
		</g>
		<g>
			<g>
				<path fill="#ED1C24" d="M45.66,33.02l0.02-0.01c0.19-0.11,0.27-0.39,0.27-0.41l0-0.01v-0.01c0-0.01-0.03-1.32-0.03-1.71
					c0-0.44-0.74-0.72-0.77-0.73l-0.04-0.02l-0.04,0.03c-0.06,0.06-0.26,0.21-0.4,0.21c-0.18,0-0.29-0.03-0.47-0.21l-0.02-0.02
					h-0.03c-0.59,0-0.88,0.71-0.89,0.75l0,0.03c-0.01,0.14-0.05,1.37,0,1.58c0.04,0.18,0.2,0.37,0.26,0.45
					c-0.12,0.42-0.72,2.69,0.09,2.97v0.39h1.95v-0.41C46.29,35.55,45.82,33.6,45.66,33.02z M43.41,30.93
					c0.04-0.09,0.28-0.61,0.71-0.63c0.2,0.19,0.35,0.23,0.55,0.23c0.18,0,0.39-0.15,0.47-0.22c0.21,0.09,0.63,0.32,0.63,0.57
					c0,0.37,0.02,1.57,0.03,1.7c-0.02,0.07-0.08,0.22-0.18,0.29l-0.39-0.01v-0.74h-1.32v0.72l-0.27,0c-0.05-0.06-0.2-0.24-0.23-0.39
					C43.37,32.31,43.39,31.47,43.41,30.93z M44.77,35.58h-0.35c-0.09,0-0.16-0.07-0.16-0.15c0-0.09,0.07-0.16,0.16-0.16h0.35
					c0.09,0,0.16,0.07,0.16,0.16C44.92,35.51,44.85,35.58,44.77,35.58z M45.5,35.74l-0.96-1.07l-0.88,1.09l0,0
					c-0.59-0.19-0.21-2.01,0-2.77l1.84,0.03C45.71,33.77,46.05,35.47,45.5,35.74z"/>
			</g>
			<g>
				<path fill="#ED1C24" d="M45.24,33.77c0.22-0.31-0.06-0.53-0.06-0.53s-0.78,0-1.15,0c-0.37,0-0.25,0.51-0.25,0.51l0.73,0.62
					C44.51,34.38,45.02,34.09,45.24,33.77z"/>
			</g>
			<g>
				<path fill="#ED1C24" d="M44.76,34.49l0.69,0.82c0,0-0.07-0.97-0.1-1.3C45.18,34.05,44.76,34.49,44.76,34.49z"/>
			</g>
			<g>
				<path fill="#ED1C24" d="M43.75,34.02c-0.03,0.32-0.1,1.3-0.1,1.3l0.69-0.82C44.34,34.49,43.92,34.05,43.75,34.02z"/>
			</g>
			<g>
				<path fill="#ED1C24" d="M45.11,31.9h0.12v-0.12c0-0.07-0.05-0.12-0.12-0.12h-1.08c-0.07,0-0.12,0.05-0.12,0.12v0.12h0.12H45.11z
					"/>
			</g>
			<g>
				<path fill="#ED1C24" d="M43.54,36.41h-0.13v0.13c0,0.07,0.06,0.13,0.13,0.13h2.02c0.07,0,0.13-0.06,0.13-0.13v-0.13h-0.13H43.54
					z"/>
			</g>
		</g>
		<g>
			<polygon fill="#ED1C24" points="51.92,29.47 52.85,30.18 57.47,30.18 57.47,29.47 			"/>
		</g>
	</g>
	<g>
		<path fill="#FFFFFF" d="M77.65,16.2l-6.08,9.82c0,0-11.85-12.94-27.82-4.08C43.75,21.95,56.71,1.62,77.65,16.2z"/>
		<path fill="#F7941D" d="M77.31,14.12l-6.08,9.82c0,0-11.85-12.94-27.82-4.08C43.41,19.86,56.37-0.46,77.31,14.12z"/>
	</g>
	<g>
		<path fill="#FFFFFF" d="M65.47,3.62l0.54,11.54c0,0-17.09-3.97-25.26,12.36C40.75,27.51,39.95,3.42,65.47,3.62z"/>
		<path fill="#ED1C24" d="M64.01,2.09l0.53,11.54c0,0-17.09-3.97-25.26,12.36C39.29,25.99,38.5,1.9,64.01,2.09z"/>
	</g>
	<g>
		<path fill="#FFFFFF" d="M52.96,9.86l-4.17-7.61c0,0-18.16,8.7-9.99,28.11C38.8,30.36,38.01,15.41,52.96,9.86z"/>
		<path fill="#F7941D" d="M51.28,9.86l-4.17-7.61c0,0-18.16,8.7-9.99,28.11C37.12,30.36,36.33,15.41,51.28,9.86z"/>
	</g>
	<g>
		<path fill="#F7941D" d="M57.84,20.31c0,0,6.67-0.23,13.24,4.7c0,0,2.83,13.64-13.36,21.55c0,0-12.08,5.96-23.81-4.59
			c0,0-14.78-14.9,1.52-31.41c0,0-7.55,13.76,3.25,27.82c0,0,3.66,4.51,10.64,4c0,0,7.61-0.41,10.73-7.23
			C60.05,35.16,64.38,26.74,57.84,20.31z"/>
		<path fill="#ED1C24" d="M70.55,24.17c0,0,1.58,5.42-2.2,12.73c0,0-3.73,7.1-11.91,10.22c0,0-17.95,4.85-25.18-9.71
			c0,0-8.98-14.04,5.06-27.26l1.76-2.89c0,0-18.59,7.95-11.67,30.77c0,0,6.09,15.69,23.44,14.66c0,0,24.88-1.55,22.82-27.57
			L70.55,24.17z"/>
	</g>
</g>
</svg>
